<?xml version="1.0" encoding="UTF-8" standalone="no"?>
<!-- Created with Inkscape (http://www.inkscape.org/) -->

<svg
   width="518mm"
   height="304mm"
   viewBox="0 0 518 304"
   version="1.1"
   id="svg1"
   inkscape:version="1.3.2 (091e20e, 2023-11-25)"
   sodipodi:docname="PiCase.svg"
   xmlns:inkscape="http://www.inkscape.org/namespaces/inkscape"
   xmlns:sodipodi="http://sodipodi.sourceforge.net/DTD/sodipodi-0.dtd"
   xmlns="http://www.w3.org/2000/svg"
   xmlns:svg="http://www.w3.org/2000/svg">
  <sodipodi:namedview
     id="namedview1"
     pagecolor="#ffffff"
     bordercolor="#000000"
     borderopacity="0.25"
     inkscape:showpageshadow="2"
     inkscape:pageopacity="0.0"
     inkscape:pagecheckerboard="0"
     inkscape:deskcolor="#d1d1d1"
     inkscape:document-units="mm"
     showguides="false"
     showgrid="false"
     inkscape:zoom="0.46363185"
     inkscape:cx="692.35967"
     inkscape:cy="607.16277"
     inkscape:window-width="1512"
     inkscape:window-height="862"
     inkscape:window-x="0"
     inkscape:window-y="44"
     inkscape:window-maximized="0"
     inkscape:current-layer="layer1">
    <sodipodi:guide
       position="208.99909,204.00001"
       orientation="0,1"
       id="guide6"
       inkscape:locked="false"
       inkscape:label=""
       inkscape:color="rgb(0,134,229)" />
    <inkscape:grid
       id="grid6"
       units="mm"
       originx="0"
       originy="0"
       spacingx="0.99999999"
       spacingy="1"
       empcolor="#0099e5"
       empopacity="0.30196078"
       color="#0099e5"
       opacity="0.14901961"
       empspacing="5"
       dotted="false"
       gridanglex="30"
       gridanglez="30"
       visible="false" />
    <sodipodi:guide
       position="162.34897,194.00001"
       orientation="0,1"
       id="guide7"
       inkscape:locked="false"
       inkscape:label=""
       inkscape:color="rgb(0,134,229)" />
    <sodipodi:guide
       position="162.09209,187.00001"
       orientation="0,1"
       id="guide8"
       inkscape:locked="false"
       inkscape:label=""
       inkscape:color="rgb(0,134,229)" />
    <sodipodi:guide
       position="200.00001,211.65147"
       orientation="-1,0"
       id="guide9"
       inkscape:locked="false"
       inkscape:label=""
       inkscape:color="rgb(0,134,229)" />
    <sodipodi:guide
       position="215.00001,208.53524"
       orientation="-1,0"
       id="guide10"
       inkscape:locked="false"
       inkscape:label=""
       inkscape:color="rgb(0,134,229)" />
    <sodipodi:guide
       position="222.00001,211.93193"
       orientation="-1,0"
       id="guide11"
       inkscape:locked="false"
       inkscape:label=""
       inkscape:color="rgb(0,134,229)" />
    <sodipodi:guide
       position="178.71536,196.00001"
       orientation="0,1"
       id="guide12"
       inkscape:locked="false"
       inkscape:label=""
       inkscape:color="rgb(0,134,229)" />
    <sodipodi:guide
       position="303.00001,237.70834"
       orientation="-1,0"
       id="guide13"
       inkscape:locked="false"
       inkscape:label=""
       inkscape:color="rgb(0,134,229)" />
    <sodipodi:guide
       position="310.00001,238.20305"
       orientation="-1,0"
       id="guide14"
       inkscape:locked="false"
       inkscape:label=""
       inkscape:color="rgb(0,134,229)" />
    <sodipodi:guide
       position="256.58522,174.00001"
       orientation="0,1"
       id="guide17"
       inkscape:locked="false"
       inkscape:label=""
       inkscape:color="rgb(0,134,229)" />
    <sodipodi:guide
       position="345.43621,184.00001"
       orientation="0,1"
       id="guide24"
       inkscape:locked="false"
       inkscape:label=""
       inkscape:color="rgb(0,134,229)" />
    <sodipodi:guide
       position="190.00001,263.26374"
       orientation="-1,0"
       id="guide25"
       inkscape:locked="false"
       inkscape:label=""
       inkscape:color="rgb(0,134,229)" />
    <sodipodi:guide
       position="335.00001,237.99216"
       orientation="-1,0"
       id="guide26"
       inkscape:locked="false"
       inkscape:label=""
       inkscape:color="rgb(0,134,229)" />
    <sodipodi:guide
       position="164.48379,24.000002"
       orientation="0,1"
       id="guide27"
       inkscape:locked="false"
       inkscape:label=""
       inkscape:color="rgb(0,134,229)" />
    <sodipodi:guide
       position="345.00001,118.59504"
       orientation="-1,0"
       id="guide28"
       inkscape:locked="false"
       inkscape:label=""
       inkscape:color="rgb(0,134,229)" />
    <sodipodi:guide
       position="180.00001,138.4341"
       orientation="-1,0"
       id="guide29"
       inkscape:locked="false"
       inkscape:label=""
       inkscape:color="rgb(0,134,229)" />
    <sodipodi:guide
       position="164.28925,29.000002"
       orientation="0,1"
       id="guide30"
       inkscape:locked="false"
       inkscape:label=""
       inkscape:color="rgb(0,134,229)" />
    <sodipodi:guide
       position="174.28908,35.320032"
       orientation="0,-1"
       id="guide31"
       inkscape:locked="false" />
    <sodipodi:guide
       position="325.00001,4.1462509"
       orientation="-1,0"
       id="guide32"
       inkscape:locked="false"
       inkscape:label=""
       inkscape:color="rgb(0,134,229)" />
    <sodipodi:guide
       position="166.1076,38.471932"
       orientation="0,-1"
       id="guide1"
       inkscape:locked="false" />
    <sodipodi:guide
       position="210.00001,35.320022"
       orientation="1,0"
       id="guide2"
       inkscape:locked="false" />
    <sodipodi:guide
       position="257.62501,-46"
       orientation="-1,0"
       id="guide3"
       inkscape:locked="false"
       inkscape:label=""
       inkscape:color="rgb(0,134,229)" />
    <sodipodi:guide
       position="267.37501,-46"
       orientation="-1,0"
       id="guide4"
       inkscape:locked="false"
       inkscape:label=""
       inkscape:color="rgb(0,134,229)" />
    <sodipodi:guide
       position="315.12501,-46"
       orientation="-1,0"
       id="guide5"
       inkscape:locked="false"
       inkscape:label=""
       inkscape:color="rgb(0,134,229)" />
    <sodipodi:guide
       position="155.38329,4.0000009"
       orientation="0,1"
       id="guide18"
       inkscape:locked="false"
       inkscape:label=""
       inkscape:color="rgb(0,134,229)" />
    <sodipodi:guide
       position="169.17271,1.0000008"
       orientation="0,1"
       id="guide19"
       inkscape:locked="false"
       inkscape:label=""
       inkscape:color="rgb(0,134,229)" />
    <sodipodi:guide
       position="355.21377,-5.9999995"
       orientation="0,1"
       id="guide20"
       inkscape:locked="false"
       inkscape:label=""
       inkscape:color="rgb(0,134,229)" />
    <sodipodi:guide
       position="359.90447,-11"
       orientation="0,1"
       id="guide21"
       inkscape:locked="false"
       inkscape:label=""
       inkscape:color="rgb(0,134,229)" />
    <sodipodi:guide
       position="245.29989,-7.9999996"
       orientation="0,1"
       id="guide22"
       inkscape:locked="false"
       inkscape:label=""
       inkscape:color="rgb(0,134,229)" />
    <sodipodi:guide
       position="231.15001,7.0707311"
       orientation="-1,0"
       id="guide23"
       inkscape:locked="false"
       inkscape:label=""
       inkscape:color="rgb(0,134,229)" />
    <sodipodi:guide
       position="236.35001,6.586601"
       orientation="-1,0"
       id="guide33"
       inkscape:locked="false"
       inkscape:label=""
       inkscape:color="rgb(0,134,229)" />
    <sodipodi:guide
       position="54.775248,-292.00001"
       orientation="0,1"
       id="guide35"
       inkscape:locked="false"
       inkscape:label=""
       inkscape:color="rgb(0,134,229)" />
  </sodipodi:namedview>
  <defs
     id="defs1">
    <inkscape:path-effect
       effect="bspline"
       id="path-effect4"
       is_visible="true"
       lpeversion="1.3"
       weight="33.333333"
       steps="2"
       helper_size="0"
       apply_no_weight="true"
       apply_with_weight="true"
       only_selected="false"
       uniform="false" />
    <inkscape:path-effect
       effect="spiro"
       id="path-effect3"
       is_visible="true"
       lpeversion="1" />
  </defs>
  <g
     inkscape:label="Layer 1"
     inkscape:groupmode="layer"
     id="layer1">
    <path
       id="path25"
       d="m 58.365673,77.780442 h -0.84667 m 0,2.01083 h 0.84667 m 70.343967,-8.07861 v 0.0706 0.0705 l 0.0353,0.0353 0.0353,0.0706 v 0.0353 l 0.0353,0.0353 0.0353,0.0706 0.0705,0.0353 m 0,-8.00806 -0.0705,0.0353 -0.0353,0.0353 -0.0353,0.0705 v 0.0353 l -0.0353,0.0353 -0.0353,0.0706 v 0.0706 0.0353 m 0,-10.72445 v 0.0353 0.0706 l 0.0353,0.0353 0.0353,0.0706 v 0.0353 l 0.0353,0.0706 0.0353,0.0353 0.0705,0.0353 m 0,-8.00806 -0.0705,0.0353 -0.0353,0.0353 -0.0353,0.0705 v 0.0353 l -0.0353,0.0706 -0.0353,0.0353 v 0.0706 0.0353 m -28.857241,40.74583 h 2.010841 m -2.010841,-2.99861 v 2.99861 m 2.010841,-2.99861 h -2.010841 m 2.010841,2.99861 v -2.99861 m -25.858611,-1.62278 h -1.97556 m 1.97556,1.19945 v -1.19945 m -1.97556,1.19945 h 1.97556 m -1.97556,-1.19945 v 1.19945 m 0,-4.62139 v 1.19944 m 1.97556,-1.19944 h -1.97556 m 1.97556,1.19944 v -1.19944 m -1.97556,1.19944 h 1.97556 m -13.687816,3.42195 h 2.01084 m -2.01084,-1.19945 v 1.19945 m 2.01084,0 v -1.19945 m 0,0 h -2.01084 m 0,-3.42194 v 1.19944 m 2.01084,-1.19944 h -2.01084 m 2.01084,1.19944 v -1.19944 m -2.01084,1.19944 h 2.01084 m 8.572526,8.36083 v -2.01083 m 0,0 h -1.19944 m 0,0 v 2.01083 m 0,0 h 1.19944 m -3.774716,0 h 1.199444 m -1.199444,-2.01083 v 2.01083 m 1.199444,-2.01083 h -1.199444 m 1.199444,2.01083 v -2.01083 m -4.621404,2.01083 h 1.19944 m 0,-2.01083 h -1.19944 m 1.19944,2.01083 v -2.01083 m -1.19944,0 v 2.01083 m 9.066406,-14.99305 h -2.01084 m 2.01084,2.78694 v -2.78694 m -2.01084,0 v 2.78694 m 0,0 h 2.01084 m -2.50473,-2.78694 h -2.010832 m 0,2.78694 h 2.010832 m -2.010832,-2.78694 v 2.78694 m 2.010832,0 v -2.78694 m -4.198056,0 h -2.01084 m 0,0 v 2.78694 m 0,0 h 2.01084 m 0,0 v -2.78694 m -2.50473,2.78694 v -2.78694 m 0,0 h -2.01086 m 0,2.78694 h 2.01086 m -2.01086,-2.78694 v 2.78694 m 2.61058,8.36084 h 5.997236 m -5.997236,-5.99723 v 5.99723 m 5.997236,-5.99723 h -5.997236 m 5.997236,5.99723 v -5.99723 m 42.686111,-28.29277 v -2.92806 m 0,0 h -1.62278 m 0,2.92806 h 1.62278 m -1.62278,-2.92806 v 2.92806 m 14.39334,6.13833 v -7.3025 m -4.30389,7.3025 h 4.30389 m -4.30389,-7.3025 v 7.3025 m 4.30389,-7.3025 h -4.30389 m -1.34056,28.39861 4.23333,-4.23333 m -4.23333,-4.26861 -4.26861,4.26861 m 8.50194,0 -4.23333,-4.26861 m -4.26861,4.26861 4.26861,4.23333 m 0.38806,-21.73111 h -11.99445 m 11.99445,11.99444 v -11.99444 m -11.99445,11.99444 h 11.99445 m -11.99445,-11.99444 v 11.99444 m -26.493611,-5.04472 h 14.49917 m -14.49917,-10.01889 v 10.01889 m 14.49917,-10.01889 h -14.49917 m 14.49917,10.01889 v -10.01889 m -10.72445,38.55861 v 3.21028 m 5.32695,0 v -3.21028 m 0,0 h -5.32695 m 0,3.21028 h 5.32695 M 60.905693,80.779732 v -3.98639 m -2.54002,3.98639 v -3.98639 m 0,-0.28222 h 2.54002 m 0,0.28222 v -0.28222 m -2.54002,0.28222 v -0.28222 m 0,4.51556 h 2.54002 m 0,0 v -0.24695 m -2.54002,0.24695 v -0.24695 m -0.84667,-0.98778 v -0.0705 -0.10584 -0.17638 -0.24695 -0.28222 -0.28222 -0.28223 -0.21166 -0.21167 -0.10583 -0.0353 m 65.687287,-35.59528 v 5.99723 m 2.99861,-5.99723 h -2.99861 m 2.99861,5.99723 v -5.99723 m -2.99861,5.99723 h 2.99861 m -5.46805,41.27499 0.17639,-0.0353 0.17639,-0.10584 0.10583,-0.17639 0.0353,-0.17639 -0.0353,-0.21166 -0.10583,-0.17639 -0.17639,-0.10583 -0.17639,-0.0353 -0.21167,0.0353 -0.14111,0.10583 -0.10583,0.17639 -0.0353,0.21166 0.0353,0.17639 0.10583,0.17639 0.14111,0.10584 0.21167,0.0353 m 0,-3.56305 -0.21167,0.0353 -0.14111,0.10583 -0.10583,0.17639 -0.0353,0.21167 0.0353,0.17638 0.10583,0.17639 0.14111,0.10584 0.21167,0.0353 0.17639,-0.0353 0.17639,-0.10584 0.10583,-0.17639 0.0353,-0.17638 -0.0353,-0.21167 -0.10583,-0.17639 -0.17639,-0.10583 -0.17639,-0.0353 m -2.54,1.02305 0.17639,-0.0353 0.17639,-0.10584 0.10583,-0.17639 0.0353,-0.17638 -0.0353,-0.21167 -0.10583,-0.17639 -0.17639,-0.10583 -0.17639,-0.0353 -0.21167,0.0353 -0.14111,0.10583 -0.10583,0.17639 -0.0353,0.21167 0.0353,0.17638 0.10583,0.17639 0.14111,0.10584 0.21167,0.0353 m 0,1.51695 -0.21167,0.0353 -0.14111,0.10583 -0.10583,0.17639 -0.0353,0.21166 0.0353,0.17639 0.10583,0.17639 0.14111,0.10584 0.21167,0.0353 0.17639,-0.0353 0.17639,-0.10584 0.10583,-0.17639 0.0353,-0.17639 -0.0353,-0.21166 -0.10583,-0.17639 -0.17639,-0.10583 -0.17639,-0.0353 m -1.23472,-3.24556 v 4.97417 m 5.00944,0 v -4.97417 m -5.00944,4.97417 h 5.00944 m 0,-4.97417 h -5.00944 m -42.015841,8.67834 h 4.02167 m -4.02167,-2.89278 v 2.89278 m 4.02167,-2.89278 h -4.02167 m 4.02167,2.89278 v -2.89278 m -19.861446,-5.50333 h 0.49389 m -0.49389,0 v -0.59973 m -0.21166,0 h 0.21166 m -0.98778,-0.81139 v 0.17639 l 0.0705,0.14111 0.0706,0.14112 0.0705,0.10583 0.14111,0.10583 0.14112,0.0706 0.14112,0.0705 h 0.14111 m -0.77612,-1.19944 v 0.38805 m 0.77612,-1.19944 -0.14111,0.0353 -0.14112,0.0353 -0.14112,0.0705 -0.14111,0.10583 -0.0705,0.14112 -0.0706,0.10583 -0.0705,0.17639 v 0.14111 m 0.98778,-0.81139 h -0.21166 m 0.21166,0 v -0.59972 m 0,0 h 0.49389 m 0,3.21028 v -3.21028 m 54.751167,-1.27 h -2.92805 m 2.92805,15.48694 v -15.48694 m -2.92805,15.48694 h 2.92805 m -2.92805,-15.48694 v 15.48694 m -6.20889,-15.48694 v 15.48694 m 2.96333,0 v -15.48694 m -2.96333,15.48694 h 2.96333 m 0,-15.48694 h -2.96333 m -43.038937,-10.4775 h -1.12889 m -1.83445,-8.60778 v 10.51278 m 2.96334,-10.51278 h -2.96334 m 1.83445,1.905 h 1.12889 m 0,0 v -1.905 m -2.96334,10.51278 h 2.96334 m 0,0 v -1.905 m -1.12889,0 v -6.70278 m 1.12889,6.42056 h -0.74083 m 0.74083,-6.13834 h -0.74083 m 0,0 v 6.13834 m 0.74083,-6.13834 v 6.13834 m -0.74083,-4.40973 v 0.21167 m 0,0.77611 v 0.21167 m 0,2.78694 v 0.21167 m 0,-2.18722 v 0.17639 m 0,0.81138 v 0.21167 m 0,-4.23333 v 0.21167 m 0,1.30527 v 0.21167 m 0,0.77611 v 0.21167 m 0,-2.18722 v 0.17638 m 0,-0.17638 v 0 m 0,0.17638 v 0 m 0,-1.19944 v 0.21167 m 0,4.79777 v 0.21167 m 0,-2.2225 v 0 m 0,0.21167 v 0 m 0,-3.21028 v 0 m 0,0.21167 v 0 m 0,3.81 v 0.17638 m 0,-0.17638 v 0 m 0,0.17638 v 0 m 0,0.81139 v 0 m 0,0.21167 v 0 m 0,-3.21028 v 0 m 0,0.21167 v 0 m -0.38806,-2.71639 v 0.10583 m 1.05833,0.17639 v -0.28222 m -1.05833,0.10583 h 0.38806 m 0,0 v 0.17639 m 0.67027,6.42056 v -0.28222 m -1.05833,0.21166 v 0.0706 m 0.38806,-0.0706 h -0.38806 m 0.38806,-0.21166 v 0.21166 m -0.38806,0 v 0 m 0,-6.52639 v 0 m 0.38806,2.89278 v 0 m 0,0.21167 v 0 m 0,2.01083 v 0 m 0,-0.21167 v 0 m 0,-3.80999 v 0 m 0,-0.21167 v 0 m 0,3.03389 v 0 m 0,0.17639 v 0 m 0,2.01083 v 0 m 0,-0.21167 v 0 m 0,-3.98639 v 0 m 0,0.21167 v 0 m 1.16417,5.04472 v -0.3175 m 0,0.3175 h -0.42334 m 0.42334,-0.3175 h -0.42334 m 0.42334,-7.19666 v -0.28223 m 0,0 h -0.42334 m 0.42334,0.28223 h -0.42334 m 0.42334,3.45722 v -0.21167 m 0,0.21167 h -0.42334 m 0.42334,-0.21167 h -0.42334 m 0.42334,1.19945 v -0.17639 m 0,0 h -0.42334 m 0.42334,0.17639 h -0.42334 m 0.42334,-1.97556 v -0.21167 m 0,0 h -0.42334 m 0.42334,0.21167 h -0.42334 m 0.42334,3.98639 v -0.21167 m 0,0 h -0.42334 m 0.42334,0.21167 h -0.42334 m 0.42334,-0.98778 v -0.21167 m 0,0.21167 h -0.42334 m 0.42334,-0.21167 h -0.42334 m 0.42334,-3.80999 v -0.21167 m 0,0 h -0.42334 m 0.42334,0.21167 h -0.42334 m 83.396717,8.46666 v 0.0706 0.0353 0.0706 0.0353 0.0353 0.0353 m 0.28222,-0.28222 h -0.28222 m 0.28222,0.28222 h -0.28222 m 0.28222,-0.28222 v 0.0706 0.0353 0.0706 0.0353 0.0353 0.0353 m 0,-10.97138 h -0.28222 m 0,0 v 10.68916 m 0.28222,0 v -10.68916 m -0.28222,-0.3175 h 0.28222 m -0.28222,0 v 0 0.0353 0.0353 0.0353 0.0353 0.0353 0.0706 0.0706 m 0.28222,-0.3175 v 0 0.0353 0.0353 0.0353 0.0353 0.0353 0.0706 0.0706 m -1.905,7.65527 0.0353,0.0353 0.0706,0.0353 0.0353,0.0705 v 0.0706 m 0,-0.17639 -0.14112,-0.0353 m 0.28223,0.21167 v -0.0706 l -0.0353,-0.0705 -0.0706,-0.0353 h -0.0353 m 0,0.17639 h 0.14111 m -1.72861,-0.45861 1.44638,0.24694 m 0.14112,0.21167 v 0.9525 m 0,0 v 0.0705 l -0.0706,0.0706 -0.0353,0.0353 -0.0353,0.0353 m 0,0 -1.44638,0.24694 m 0,-1.86972 v 1.86972 m 1.44638,-6.24417 0.0353,-0.0353 0.0706,-0.0706 0.0353,-0.0353 v -0.0705 m -1.5875,0.42333 1.44638,-0.21167 m -1.44638,-1.62277 v 1.83444 m 1.44638,-1.5875 -1.44638,-0.24694 m 1.5875,0.42333 v -0.0706 l -0.0706,-0.0706 -0.0353,-0.0353 h -0.0353 m 0.14112,1.16417 v -0.98778 m 0,-0.17639 h -0.14112 m 0.14112,0 0.0706,0.0353 0.0353,0.0706 0.0353,0.0353 v 0.0706 m -0.14111,-0.0353 0.14111,0.0353 m 0,6.94972 v -0.9525 m 0,0.9525 h -0.14111 m 0.14111,-6.0325 -0.14111,0.0353 m 0.14111,-0.9525 v 0.91722 m 0,0 v 0.10583 l -0.0353,0.0706 -0.0706,0.0353 h -0.0353 m -0.14112,0.0353 0.14112,-0.0353 m 0,5.99722 0.0706,-0.0353 0.0353,-0.0353 0.0353,-0.0705 v -0.0353 m -0.28223,0.21167 0.14112,-0.0353 m 1.37583,-9.31333 v 0 h 0.0353 0.0353 0.0353 m 0,11.28888 v 0 h -0.0353 -0.0353 -0.0353 m -0.3175,-11.78277 v -0.0706 -0.0705 -0.0706 -0.0706 -0.0353 -0.0353 -0.0353 m -16.22778,0.38806 h 16.22778 m -16.22778,-0.38806 v 0 0.0353 0.0353 0.0353 0.0706 0.0706 0.0705 0.0706 m 0,-0.38806 h 16.22778 m -4.65667,10.795 v -2.50472 m 1.51695,0.24694 v 2.01084 m 0,0 -1.51695,0.24694 m 0,-2.50472 1.51695,0.24694 m 0,-3.98639 v -2.01083 m -1.51695,2.25778 v -2.50472 m 0,2.50472 1.51695,-0.24695 m 0,-2.01083 -1.51695,-0.24694 m -11.57111,10.40694 h 16.22778 m -4.62139,-4.90361 4.48028,0.70555 m -16.08667,-8.11388 v 12.31194 m 16.22778,-11.81805 v -0.49389 m -0.14111,8.11388 h 0.0353 v 0.0353 h 0.0353 l 0.0353,0.0353 0.0353,0.0353 v 0.0353 0.0353 0.0353 m -4.62139,-6.91444 4.48028,0.70555 m 0.14111,7.86695 v 0.0353 0.0353 0.0353 l -0.0353,0.0353 h -0.0353 l -0.0353,0.0353 h -0.0353 m 0.14111,2.15194 v -0.52917 m -0.14111,-1.62277 -4.48028,0.74083 m 4.62139,-2.57528 v 1.65806 m 0,-7.65528 v 1.65806 m 0,0 v 0.0353 0.0353 0.0353 h -0.0353 l -0.0353,0.0353 -0.0353,0.0353 h -0.0353 m 0,0 -4.48028,0.74084 m 4.48028,-2.78695 h 0.0353 v 0.0353 h 0.0353 l 0.0353,0.0353 0.0353,0.0353 v 0.0353 0.0353 0.0353 m -4.69195,-0.42333 -0.0706,-0.0353 -0.0706,-0.0706 -0.0705,-0.10583 v -0.0706 l 0.0353,-0.10583 0.0705,-0.0705 0.10583,-0.0353 h 0.0706 m 0,3.4925 h -0.0706 l -0.10583,-0.0706 -0.0705,-0.0705 -0.0353,-0.0706 v -0.10583 l 0.0705,-0.0706 0.0706,-0.0706 0.0706,-0.0353 m 0.0706,6.49111 h -0.0706 l -0.10583,-0.0353 -0.0705,-0.0705 -0.0353,-0.10584 v -0.10583 l 0.0705,-0.0706 0.0706,-0.0706 0.0706,-0.0353 m 0,-2.50472 -0.0706,-0.0353 -0.0706,-0.0706 -0.0705,-0.0705 v -0.10583 l 0.0353,-0.10584 0.0705,-0.0705 0.10583,-0.0353 h 0.0706 m -0.0706,2.99861 h 0.0353 m -0.0353,-5.99722 h 0.0353 m 0,-2.50472 h -0.0353 m 0.0353,5.99722 h -0.0353 m 4.69195,-7.40833 h 0.3175 m -0.3175,11.28888 h 0.3175 m -0.3175,0.91723 H 128.9213 m 0,-0.38806 v 0.0706 0.0706 0.0706 0.0705 0.0353 0.0353 0.0353 m 16.22778,0 v 0 -0.0353 -0.0353 -0.0353 -0.0705 -0.0706 -0.0706 -0.0706 m -3.13972,-2.15194 0.10583,-0.0353 h 0.0706 m 0,-1.94028 -0.10584,-0.0353 h -0.0706 m 0,-3.98639 0.10583,-0.0353 h 0.0706 m 0,-1.94028 -0.10584,-0.0353 h -0.0706 m 0.35277,7.9375 -0.17638,0.0353 m 0.17638,-1.905 -0.17638,-0.0353 m 0,-4.05694 0.17638,-0.0353 m 0,-1.86972 -0.17638,-0.0353 m 0.3175,1.86972 -0.0353,0.0353 h -0.0706 -0.0353 m 0,-1.86972 h 0.0353 0.0353 0.0353 0.0353 m 0,7.86694 h -0.0353 -0.0706 -0.0353 m 0,-1.86972 h 0.0353 0.0353 0.0353 0.0353 m 2.96333,4.48028 v 0 h 0.0353 l 0.0353,0.0353 0.0353,0.0353 v 0.0353 m -0.10583,-0.42333 0.0706,0.0353 h 0.0706 l 0.0706,0.0353 0.0705,0.0706 0.0353,0.0705 0.0353,0.0353 0.0353,0.10583 v 0.0706 m 0,0 v 0.635 m -0.28222,0 h 0.28222 m -0.28222,-0.635 v 0.635 m -0.10583,-1.05833 h -0.3175 m 0.3175,0.3175 h -0.3175 m 0.70555,-13.86417 v 0.67028 m -0.28222,0 v 0 0.0353 h -0.0353 v 0.0353 h -0.0353 l -0.0353,0.0353 m 0.10583,-0.77611 v 0.67028 m 0,-0.67028 h 0.28222 m 0,0.67028 v 0.0705 l -0.0353,0.0706 -0.0353,0.0705 -0.0353,0.0706 -0.0705,0.0353 -0.0706,0.0353 -0.0706,0.0353 h -0.0706 m -0.3175,0 h 0.3175 m -0.3175,-0.28222 h 0.3175 m -0.77611,10.61861 v -2.15194 m 0,-3.84528 v -2.15194 m -15.98083,7.30249 v 0 h 0.0353 0.0353 0.0353 0.0353 0.0705 m -0.21166,-6.49111 v 6.49111 m 0,-6.49111 v 0 h 0.0353 0.0353 0.0353 0.0353 0.0705 m -0.21166,6.49111 v 0.14112 0.10583 0.10583 m 0,-7.19666 v 0.0353 0.0706 0.10583 0.14111 m 1.16416,9.80723 v 0 m 0,0 v 0 m 0,-13.08806 v 0 m 0,0 v 0 m 15.80445,0.28222 h -0.0353 -0.0353 -0.0353 -0.0353 -0.0353 -0.0353 m 0.21167,12.48834 v -0.59973 m 0,-11.28888 v -0.59973 m -0.21167,12.48834 h 0.0353 0.0353 0.0353 0.0353 0.0353 0.0353 m 0.28222,-4.40973 v 0.0353 0.0706 0.0353 0.0353 0.0706 l -0.0353,0.0353 v 0.0353 0.0706 m 0.0353,-0.81139 v 0.42333 m 0.3175,-0.42333 h -0.3175 m 0.3175,0.42333 v -0.42333 m -0.0706,0.88194 v -0.0706 l 0.0353,-0.0706 v -0.0353 -0.0706 -0.0353 -0.0705 l 0.0353,-0.0353 v -0.0706 m -0.42334,2.01084 0.35278,-1.55223 m -0.35278,0.17639 0.0706,-0.24694 m -0.0353,-4.1275 0.0353,0.10583 v 0.10584 0.10583 l 0.0353,0.0706 v 0.10583 0.10583 0.10583 0.0706 m -0.10584,-0.9525 0.0353,0.17639 m -0.0353,-1.905 0.35278,1.86972 m 0,0 v 0.10584 0.10583 l 0.0353,0.10583 v 0.10584 0.10583 0.0705 l 0.0353,0.10584 v 0.10583 m 0,0.42333 h -0.3175 m 0,0 v -0.42333 m 0.3175,0 v 0.42333 m -16.05139,7.26723 v 0.35277 m -0.91722,0 h -0.0706 l -0.0705,-0.0353 -0.0706,-0.0353 -0.0706,-0.0353 -0.0353,-0.0706 -0.0353,-0.0705 -0.0353,-0.0706 v -0.0353 m 0.38806,0.35277 h 0.91722 m -0.91722,-13.79361 h -0.0706 l -0.0705,0.0353 -0.0706,0.0353 -0.0706,0.0353 -0.0353,0.0705 -0.0353,0.0706 -0.0353,0.0705 v 0.0353 m 0.38806,-0.35278 h 0.91722 m 0,0.35278 v -0.35278 m -1.19944,14.07584 -0.10584,-0.635 m 1.94028,0 -0.10583,0.635 m 3.91583,0 -0.10583,-0.635 m 1.94027,0 -0.10583,0.635 m -1.72861,-14.39334 -0.10583,0.67028 m 1.94027,0 -0.10583,-0.67028 m -7.37305,0 -0.10584,0.67028 m 1.94028,0 -0.10583,-0.67028 m 15.09888,-5.3975 h -0.28222 m 0.28222,0 v 0.0706 0.0353 0.0705 0.0353 0.0353 0.0353 0.0353 m 0,0 h -0.28222 m 0,-0.3175 v 0.0706 0.0353 0.0705 0.0353 0.0353 0.0353 0.0353 m 0.28222,-11.00666 h -0.28222 m 0.28222,10.68916 v -10.69131 m -0.28222,0 v 10.68916 m 0,-11.00666 h 0.28222 m 0,0 v 0.0353 0.0353 0.0353 0.0353 0.0705 0.0353 0.0706 m -0.28222,-0.3175 v 0.0353 0.0353 0.0353 0.0353 0.0705 0.0353 0.0706 m -3.06916,7.40833 1.44638,0.24694 m 0,0 0.0353,0.0353 0.0706,0.0353 0.0353,0.0706 v 0.0705 m 0,0 v 0.9525 m 0,0 v 0.10583 l -0.0706,0.0353 -0.0353,0.0706 h -0.0353 m 0,0 -1.44638,0.24694 m 0,-1.86972 v 1.86972 m 1.5875,-1.5875 -0.14112,-0.0353 m 0.28223,0.21167 v -0.0705 l -0.0353,-0.0706 -0.0706,-0.0353 h -0.0353 m 0,0.17639 h 0.14111 m -0.28223,-4.83305 0.0353,-0.0353 0.0706,-0.0353 0.0353,-0.0706 v -0.0705 m -1.5875,0.45861 1.44638,-0.24694 m -1.44638,-1.62278 v 1.86972 m 1.44638,-1.62278 -1.44638,-0.24694 m 1.5875,0.45861 v -0.10583 l -0.0706,-0.0353 -0.0353,-0.0706 h -0.0353 m 0.14112,1.16417 v -0.9525 m 0,-0.17639 -0.14112,-0.0353 m 0.14112,0.0353 h 0.0706 l 0.0353,0.0706 0.0353,0.0705 v 0.0353 m -0.14111,0 h 0.14111 m 0,6.94972 v -0.9525 m 0,0.9525 h -0.14111 m 0.14111,-5.99722 h -0.14111 m 0.14111,-0.9525 v 0.9525 m -0.14111,6.17361 h 0.0706 l 0.0353,-0.0706 0.0353,-0.0705 v -0.0353 m -0.28223,0.21167 0.14112,-0.0353 m 0.14111,-6.17361 v 0.0705 l -0.0353,0.0706 -0.0706,0.0353 h -0.0353 m -0.14112,0.0353 0.14112,-0.0353 m 1.37583,-3.31611 v 0 h 0.0353 0.0353 0.0353 m 0,11.32416 v 0 h -0.0353 -0.0353 -0.0353 m -0.3175,0.49389 v -0.49389 m -16.22778,0.49389 h 16.22778 m -16.22778,-12.31194 v 12.31194 m 0,-12.31194 h 16.22778 m 0,0.49389 v -0.49389 m -0.14111,4.19805 -4.48028,0.70556 m 4.62139,-0.91722 v 0.0353 0.0353 0.0353 l -0.0353,0.0353 h -0.0353 l -0.0353,0.0353 -0.0353,0.0353 m 0.14111,-1.86972 v 1.65806 m -0.14111,-1.86973 0.0353,0.0353 0.0353,0.0353 h 0.0353 l 0.0353,0.0353 v 0.0353 0.0353 0.0353 m -4.62139,-0.91722 4.48028,0.70555 m -4.51556,2.29306 v -2.50472 m 4.51556,8.29028 -4.48028,0.70555 m 4.62139,-0.91722 v 0.0353 0.0353 0.0353 l -0.0353,0.0353 h -0.0353 l -0.0353,0.0353 -0.0353,0.0353 m 0.14111,-1.86973 v 1.65806 m -0.14111,-1.86972 0.0353,0.0353 0.0353,0.0353 h 0.0353 l 0.0353,0.0353 v 0.0353 0.0353 0.0353 m -4.62139,-0.91722 4.48028,0.70556 m -4.51556,2.29305 v -2.50472 m -0.0353,-5.99722 -0.0706,-0.0353 -0.0706,-0.0706 -0.0705,-0.0705 v -0.10583 l 0.0353,-0.10584 0.0705,-0.0705 0.10583,-0.0353 h 0.0706 m 0,3.4925 h -0.0706 l -0.10583,-0.0353 -0.0705,-0.0705 -0.0353,-0.10584 v -0.10583 l 0.0705,-0.0706 0.0706,-0.0705 0.0706,-0.0353 m 0,3.4925 -0.0706,-0.0353 -0.0706,-0.0705 -0.0705,-0.0706 v -0.10583 l 0.0353,-0.10584 0.0705,-0.0705 0.10583,-0.0353 h 0.0706 m 0,3.4925 h -0.0706 l -0.10583,-0.0353 -0.0705,-0.0705 -0.0353,-0.10584 v -0.10583 l 0.0705,-0.0705 0.0706,-0.0706 0.0706,-0.0353 m 0,-5.99722 h 0.0353 m -0.0353,5.99722 h 0.0353 m 0,-8.50194 h -0.0353 m 0.0353,5.99722 h -0.0353 m 4.69195,-7.40833 h 0.3175 m -0.3175,11.32416 h 0.3175 m -0.3175,0.88195 v 0 -0.0353 -0.0353 -0.0353 -0.0705 -0.0706 -0.0705 -0.0706 m 0,0.38806 h -16.22778 m 0,-0.38806 v 0.0706 0.0705 0.0706 0.0705 0.0353 0.0353 0.0353 m 13.08806,-4.55084 v 2.01084 m 0,0 -1.51695,0.24694 m 0,-2.50472 1.51695,0.24694 m 0,-3.98638 v -2.01084 m -1.51695,2.25778 1.51695,-0.24694 m 0,-2.01084 -1.51695,-0.24694 m 4.65667,-1.905 v -0.0706 -0.0705 -0.0706 -0.0705 -0.0353 -0.0353 -0.0353 m -16.22778,0 h 16.22778 m -16.22778,0 v 0 0.0353 0.0353 0.0353 0.0705 0.0706 0.0705 0.0706 m 13.08806,10.16 0.10583,-0.0353 h 0.0706 m 0,-1.94028 h -0.10584 l -0.0706,-0.0353 m 0,-3.98638 0.10583,-0.0353 h 0.0706 m 0,-1.94028 -0.10584,-0.0353 h -0.0706 m 0.35277,7.9375 -0.17638,0.0353 m 0.17638,-1.905 -0.17638,-0.0353 m 0,-4.05694 0.17638,-0.0353 m 0,-1.86972 -0.17638,-0.0353 m 0.3175,1.905 h -0.0353 -0.0706 -0.0353 m 0,-1.86972 h 0.0353 0.0353 0.0353 0.0353 m 0,7.86694 h -0.0353 -0.0706 -0.0353 m 0,-1.86972 h 0.0353 0.0353 0.0353 0.0353 m 3.06916,4.58611 v 0.635 m -0.10583,-0.74083 v 0 h 0.0353 v 0.0353 h 0.0353 l 0.0353,0.0353 v 0.0353 m -0.10583,-0.38805 h 0.0706 l 0.0706,0.0353 0.0706,0.0353 0.0705,0.0353 0.0353,0.0705 0.0353,0.0706 0.0353,0.0706 v 0.0705 m 0,0 v 0.635 m -0.28222,0 h 0.28222 m -0.38805,-1.02305 h -0.3175 m 0.3175,0.28222 h -0.3175 m 0.42333,-13.82889 h 0.28222 m -0.28222,0 v 0.635 m 0.28222,0 v 0.0706 l -0.0353,0.0705 -0.0353,0.0706 -0.0353,0.0705 -0.0705,0.0353 -0.0706,0.0353 -0.0706,0.0353 h -0.0706 m 0.38805,-1.02306 v 0.635 m -0.28222,0 v 0.0353 l -0.0353,0.0353 h -0.0353 v 0.0353 h -0.0353 m -0.3175,0.28223 h 0.3175 m -0.3175,-0.28223 h 0.3175 m -0.77611,10.61861 v -2.15194 m 0,-3.84528 v -2.15194 m -15.98083,7.33777 v 0 h 0.0353 0.0353 0.0353 0.0353 0.0705 m -0.21166,-6.52638 v 6.52638 m 0,-6.52638 v 0 h 0.0353 0.0353 0.0353 0.0353 0.0705 m -0.21166,6.52638 v 0.10584 0.14111 0.0705 0.0353 m 0,-7.23194 v 0.0353 0.0705 0.14111 0.10584 m 1.16416,9.80722 v 0 m 0,0 v 0 m 0,-13.08806 v 0 m 0,0 v 0 m 15.80445,0.28223 h -0.0353 -0.0353 -0.0353 -0.0353 -0.0353 -0.0353 m 0.21167,12.52361 v -0.59973 m 0,-11.32416 v -0.59972 m -0.21167,12.52361 h 0.0353 0.0353 0.0353 0.0353 0.0353 0.0353 m 0.28222,-4.445 v 0.0706 0.0353 0.0353 0.0706 0.0353 l -0.0353,0.0353 v 0.0705 0.0353 m 0.0353,-0.81139 v 0.42334 m 0.3175,-0.42334 h -0.3175 m 0.3175,0.42334 v -0.42334 m -0.0706,0.88195 v -0.0706 l 0.0353,-0.0353 v -0.0705 -0.0706 -0.0353 -0.0705 l 0.0353,-0.0353 v -0.0706 m -0.42334,2.01083 0.35278,-1.55222 m -0.35278,0.17639 0.0706,-0.24695 m -0.0353,-4.09222 0.0353,0.0705 v 0.10584 0.10583 l 0.0353,0.10583 v 0.0706 0.10583 0.10584 0.0705 m -0.10584,-0.9525 0.0353,0.21167 m -0.0353,-1.94028 0.35278,1.86972 m 0.0706,0.81139 v 0.42334 m 0,0 h -0.3175 m 0.24694,-1.23473 v 0.10584 0.10583 l 0.0353,0.10583 v 0.10584 0.10583 0.10583 l 0.0353,0.10584 v 0.0705 m -0.3175,0.42334 v -0.42334 m -15.73389,7.69056 v 0.35278 m -0.91722,0 h 0.91722 m -0.91722,0 h -0.0706 l -0.0705,-0.0353 -0.0706,-0.0353 -0.0706,-0.0353 -0.0353,-0.0705 -0.0353,-0.0706 -0.0353,-0.0705 v -0.0353 m 0.38806,-13.44083 h -0.0706 l -0.0705,0.0353 -0.0706,0.0353 -0.0706,0.0353 -0.0353,0.0705 -0.0353,0.0706 -0.0353,0.0706 v 0.0353 m 0.38806,-0.35277 h 0.91722 m 0,0.35277 v -0.35277 m 4.445,14.11111 -0.10583,-0.67028 m 1.94027,0 -0.10583,0.67028 m -7.37305,0 -0.10584,-0.67028 m 1.94028,0 -0.10583,0.67028 m -1.72861,-14.42861 -0.10584,0.67027 m 1.94028,0 -0.10583,-0.67027 m 5.75027,0.67027 -0.10583,-0.67027 m -1.72861,0 -0.10583,0.67027 m 11.39472,51.32917 v -15.98084 m -21.23723,15.98084 h 21.23723 m -21.23723,-15.98084 v 15.98084 m 21.23723,-15.98084 H 124.72302 M 72.547189,98.489378 v -7.302496 m 0,0 h 0.17638 0.17639 0.17639 0.17639 0.10583 0.10584 0.0353 0.0353 m 0,7.302496 v -7.302496 m 0,7.302496 h -0.0353 -0.0353 -0.10584 -0.10583 -0.17639 -0.17639 -0.17639 -0.17638 m -6.738076,-7.302496 v 7.302496 m 6.738076,0 h -6.738076 m 0,-7.302496 h 6.738076 m -7.761136,0 v 7.302496 m 1.02306,0 h -0.21167 -0.17638 -0.1764 -0.17639 -0.10584 -0.10583 -0.0353 -0.0353 m 0,-7.302496 h 0.0353 0.0353 0.10583 0.10584 0.17639 0.1764 0.17638 0.21167 m -9.56033,-27.09333 v 9.98361 m 0.52917,-10.51277 -0.10583,0.0353 h -0.10584 l -0.0705,0.0706 -0.0706,0.0706 -0.0705,0.0705 -0.0706,0.0706 v 0.10583 l -0.0353,0.10583 m 1.72861,-0.52916 h -1.19944 m 0,11.00666 h 1.19944 m -1.19944,0 h -0.10583 l -0.10584,-0.0353 -0.0705,-0.0353 -0.0706,-0.0706 -0.0705,-0.0706 -0.0706,-0.10584 v -0.0705 l -0.0353,-0.10584 m 30.021456,24.235836 h -5.00944 m 5.00944,0 v 0.35277 m -5.00944,-0.35277 v 0.35277 m 5.00944,0.176387 v -0.176387 m 0,0.176387 h -5.00944 m 0,0 v -0.176387 m 5.00944,-0.670267 h -5.00944 m 5.00944,0 v 0.0705 0.0353 0.0353 0.0353 0.0353 0.0353 0.0353 0.0353 m -5.00944,-0.317497 v 0.0705 0.0353 0.0353 0.0353 0.0353 0.0353 0.0353 0.0353 m 5.25639,-0.317497 v -7.690559 m 0,0 h 0.0706 0.10583 0.10584 0.0705 0.0706 0.0353 0.0353 m 0,0 v 7.690559 m 0,0 v 0 h -0.0353 -0.0353 -0.0706 -0.0705 -0.10584 -0.10583 -0.0706 m -5.50334,-7.690559 v 7.690559 m 0,0 h -0.10583 -0.10583 -0.0706 -0.0706 -0.0705 -0.0353 -0.0353 m 0,0 v -7.690559 m 0,0 v 0 h 0.0353 0.0353 0.0705 0.0706 0.0706 0.10583 0.10583 m 5.25639,7.690559 h 0.24695 m -5.50334,0 h 0.24695 m 5.25639,-7.690559 h -5.50334 m 5.67972,7.690559 v 0.0705 l 0.0353,0.0706 v 0.0706 0.0353 l 0.0353,0.0706 0.0353,0.0705 0.0353,0.0353 0.0353,0.0353 m 0.14111,-0.458607 v 0.0705 0.0353 0.0353 l 0.0353,0.0353 v 0.0353 0.0353 l 0.0353,0.0353 v 0.0353 m 0,0 0.28222,0.35277 m -0.24694,0.176395 0.24694,-0.176395 m -0.49389,-0.21166 0.24695,0.388055 m -6.59695,-0.846662 v 0.0705 l -0.0353,0.0353 v 0.0353 0.0353 0.0353 l -0.0353,0.0353 v 0.0353 l -0.0353,0.0353 m 0.38806,-0.317497 v 0.0705 0.0706 0.0706 l -0.0353,0.0353 v 0.0706 l -0.0353,0.0705 -0.0353,0.0353 -0.0353,0.0353 m 0,0 -0.24694,0.388049 m 0,0 -0.24694,-0.176389 m 0.24694,-0.35277 -0.24694,0.35277 m 19.47333,0.176389 v -0.176389 m 0,0.176389 h -4.97417 m 0,0 v -0.176389 m 4.97417,-0.35277 h -4.97417 m 4.97417,0 v 0.35277 m -4.97417,-0.35277 v 0.35277 m 4.97417,-0.670267 h -4.97417 m 4.97417,0 v 0.0705 0.0353 0.0353 0.0353 0.0353 0.0353 0.0353 0.0353 m -4.97417,-0.317497 v 0.0705 0.0353 0.0353 0.0353 0.0353 0.0353 0.0353 0.0353 m 5.25639,-0.317497 v -7.690559 m 0,0 h 0.0706 0.105831 0.0705 0.10584 0.0353 0.0706 0.0353 m 0,0 v 7.690559 m 0,0 h -0.0353 -0.0706 -0.0353 -0.10584 -0.0705 -0.105831 -0.0706 m -5.50333,-7.690559 v 7.690559 m -0.52917,0 v -7.690559 m 0,0 h 0.0353 0.0353 0.0353 0.0706 0.0706 0.0706 0.10583 0.10584 m 0,7.690559 h -0.10584 -0.10583 -0.0706 -0.0706 -0.0706 -0.0353 -0.0353 -0.0353 m 5.75028,0 h 0.28222 m 0,-7.690559 h -5.50333 m 0,7.690559 h 0.24694 m 5.856111,0.84666 0.24695,-0.176393 m -0.67028,-0.670267 v 0.0705 l 0.0353,0.0706 v 0.0706 0.0353 l 0.0353,0.0706 0.0353,0.0705 v 0.0353 l 0.0353,0.0353 m 0.17639,-0.458607 v 0.0705 0.0353 0.0353 0.0353 l 0.0353,0.0353 v 0.0353 l 0.0353,0.0353 v 0.0353 m 0,0 0.28223,0.35277 m -0.52917,-0.21166 0.28222,0.388047 m -6.632221,-0.846654 v 0.0705 0.0353 0.0353 0.0353 l -0.0353,0.0353 v 0.0353 0.0353 l -0.0353,0.0353 m 0.38806,-0.317497 v 0.0705 0.0706 l -0.0353,0.0706 v 0.0353 l -0.0353,0.0706 v 0.0705 l -0.0353,0.0353 -0.0353,0.0353 m 0,0 -0.24695,0.388051 m 0,-0.529161 -0.24694,0.35277 m 0.24694,0.176391 -0.24694,-0.176391 m -9.45444,-55.774156 -0.21167,0.0706 -0.14111,0.10583 -0.10583,0.14111 -0.0353,0.21167 0.0353,0.17639 0.10583,0.17638 0.14111,0.10584 0.21167,0.0353 m 0,0 0.17639,-0.0353 0.17638,-0.10584 0.10584,-0.17638 0.0353,-0.17639 -0.0353,-0.21167 -0.10584,-0.14111 -0.17638,-0.10583 -0.17639,-0.0706 m 2.54,2.54 -0.21167,0.0705 -0.14111,0.10584 -0.10583,0.14111 -0.0353,0.21167 0.0353,0.17638 0.10583,0.17639 0.14111,0.10584 0.21167,0.0353 m 0,0 0.17639,-0.0353 0.17638,-0.10584 0.10584,-0.17639 0.0353,-0.17638 -0.0353,-0.21167 -0.10584,-0.14111 -0.17638,-0.10584 -0.17639,-0.0705 m -17.780006,0 -0.21167,0.0705 -0.14111,0.10584 -0.10583,0.14111 -0.0353,0.21167 0.0353,0.17638 0.10583,0.17639 0.14111,0.10584 0.21167,0.0353 m 0,0 0.17639,-0.0353 0.1764,-0.10584 0.10583,-0.17639 0.0353,-0.17638 -0.0353,-0.21167 -0.10583,-0.14111 -0.1764,-0.10584 -0.17639,-0.0705 m 20.320006,0 -0.21167,0.0705 -0.14111,0.10584 -0.10583,0.14111 -0.0353,0.21167 0.0353,0.17638 0.10583,0.17639 0.14111,0.10584 0.21167,0.0353 m 0,0 0.17639,-0.0353 0.17638,-0.10584 0.10584,-0.17639 0.0353,-0.17638 -0.0353,-0.21167 -0.10584,-0.14111 -0.17638,-0.10584 -0.17639,-0.0705 m -15.24,1.02305 0.17639,-0.0353 0.17638,-0.10584 0.10584,-0.17639 0.0353,-0.17638 -0.0353,-0.21167 -0.10584,-0.14111 -0.17638,-0.10584 -0.17639,-0.0705 m 0,0 -0.21167,0.0705 -0.14111,0.10584 -0.10583,0.14111 -0.0353,0.21167 0.0353,0.17638 0.10583,0.17639 0.14111,0.10584 0.21167,0.0353 m 20.32,-3.56305 -0.21167,0.0706 -0.14111,0.10583 -0.10584,0.14111 -0.0353,0.21167 0.0353,0.17639 0.10584,0.17638 0.14111,0.10584 0.21167,0.0353 m 0,0 0.17638,-0.0353 0.17639,-0.10584 0.10584,-0.17638 0.0353,-0.17639 -0.0353,-0.21167 -0.10584,-0.14111 -0.17639,-0.10583 -0.17638,-0.0706 m -27.940016,1.02306 0.17639,-0.0353 0.17639,-0.10584 0.10583,-0.17638 0.0353,-0.17639 -0.0353,-0.21167 -0.10583,-0.14111 -0.17639,-0.10583 -0.17639,-0.0706 m 0,0 -0.21167,0.0706 -0.14111,0.10583 -0.10583,0.14111 -0.0353,0.21167 0.0353,0.17639 0.10583,0.17638 0.14111,0.10584 0.21167,0.0353 m 43.180017,-1.02306 -0.21167,0.0706 -0.14111,0.10583 -0.10584,0.14111 -0.0353,0.21167 0.0353,0.17639 0.10584,0.17638 0.14111,0.10584 0.21167,0.0353 m 0,0 0.17638,-0.0353 0.17639,-0.10584 0.10584,-0.17638 0.0353,-0.17639 -0.0353,-0.21167 -0.10584,-0.14111 -0.17639,-0.10583 -0.17638,-0.0706 m -33.020001,1.02306 0.17639,-0.0353 0.17638,-0.10584 0.10584,-0.17638 0.0353,-0.17639 -0.0353,-0.21167 -0.10584,-0.14111 -0.17638,-0.10583 -0.17639,-0.0706 m 0,0 -0.21167,0.0706 -0.14111,0.10583 -0.10583,0.14111 -0.0353,0.21167 0.0353,0.17639 0.10583,0.17638 0.14111,0.10584 0.21167,0.0353 m -9.666126,1.51694 h -0.98778 m 0.98778,1.02305 v -1.02305 m -0.98778,1.02305 h 0.98778 m -0.98778,-1.02305 v 1.02305 m 18.273906,-1.02305 -0.21167,0.0705 -0.14111,0.10584 -0.10583,0.14111 -0.0353,0.21167 0.0353,0.17638 0.10583,0.17639 0.14111,0.10584 0.21167,0.0353 m 0,0 0.17639,-0.0353 0.17638,-0.10584 0.10584,-0.17639 0.0353,-0.17638 -0.0353,-0.21167 -0.10584,-0.14111 -0.17638,-0.10584 -0.17639,-0.0705 m 30.479991,1.02305 0.17639,-0.0353 0.17639,-0.10584 0.10584,-0.17639 0.0353,-0.17638 -0.0353,-0.21167 -0.10584,-0.14111 -0.17639,-0.10584 -0.17639,-0.0705 m 0,0 -0.21166,0.0705 -0.14111,0.10584 -0.10584,0.14111 -0.0353,0.21167 0.0353,0.17638 0.10584,0.17639 0.14111,0.10584 0.21166,0.0353 m -7.61999,-3.56305 -0.21167,0.0706 -0.14111,0.10583 -0.10584,0.14111 -0.0353,0.21167 0.0353,0.17639 0.10584,0.17638 0.14111,0.10584 0.21167,0.0353 m 0,0 0.17638,-0.0353 0.17639,-0.10584 0.10584,-0.17638 0.0353,-0.17639 -0.0353,-0.21167 -0.10584,-0.14111 -0.17639,-0.10583 -0.17638,-0.0706 m -10.160001,1.02306 0.17638,-0.0353 0.17639,-0.10584 0.10584,-0.17638 0.0353,-0.17639 -0.0353,-0.21167 -0.10584,-0.14111 -0.17639,-0.10583 -0.17638,-0.0706 m 0,0 -0.21167,0.0706 -0.14111,0.10583 -0.10584,0.14111 -0.0353,0.21167 0.0353,0.17639 0.10584,0.17638 0.14111,0.10584 0.21167,0.0353 m -25.4,-1.02306 -0.21167,0.0706 -0.14111,0.10583 -0.10583,0.14111 -0.0353,0.21167 0.0353,0.17639 0.10583,0.17638 0.14111,0.10584 0.21167,0.0353 m 0,0 0.17639,-0.0353 0.17638,-0.10584 0.10584,-0.17638 0.0353,-0.17639 -0.0353,-0.21167 -0.10584,-0.14111 -0.17638,-0.10583 -0.17639,-0.0706 m -2.540006,0 -0.21167,0.0706 -0.14111,0.10583 -0.10583,0.14111 -0.0353,0.21167 0.0353,0.17639 0.10583,0.17638 0.14111,0.10584 0.21167,0.0353 m 0,0 0.17639,-0.0353 0.1764,-0.10584 0.10583,-0.17638 0.0353,-0.17639 -0.0353,-0.21167 -0.10583,-0.14111 -0.1764,-0.10583 -0.17639,-0.0706 m 43.180007,0 -0.21167,0.0706 -0.14111,0.10583 -0.10584,0.14111 -0.0353,0.21167 0.0353,0.17639 0.10584,0.17638 0.14111,0.10584 0.21167,0.0353 m 0,0 0.17638,-0.0353 0.17639,-0.10584 0.10584,-0.17638 0.0353,-0.17639 -0.0353,-0.21167 -0.10584,-0.14111 -0.17639,-0.10583 -0.17638,-0.0706 m -7.62,1.02306 0.17638,-0.0353 0.17639,-0.10584 0.10584,-0.17638 0.0353,-0.17639 -0.0353,-0.21167 -0.10584,-0.14111 -0.17639,-0.10583 -0.17638,-0.0706 m 0,0 -0.21167,0.0706 -0.14111,0.10583 -0.10584,0.14111 -0.0353,0.21167 0.0353,0.17639 0.10584,0.17638 0.14111,0.10584 0.21167,0.0353 m -10.160001,1.51694 -0.21167,0.0705 -0.14111,0.10584 -0.10584,0.14111 -0.0353,0.21167 0.0353,0.17638 0.10584,0.17639 0.14111,0.10584 0.21167,0.0353 m 0,0 0.17638,-0.0353 0.17639,-0.10584 0.10584,-0.17639 0.0353,-0.17638 -0.0353,-0.21167 -0.10584,-0.14111 -0.17639,-0.10584 -0.17638,-0.0705 m -15.24,-1.51694 0.17639,-0.0353 0.17638,-0.10584 0.10584,-0.17638 0.0353,-0.17639 -0.0353,-0.21167 -0.10584,-0.14111 -0.17638,-0.10583 -0.17639,-0.0706 m 0,0 -0.21167,0.0706 -0.14111,0.10583 -0.10583,0.14111 -0.0353,0.21167 0.0353,0.17639 0.10583,0.17638 0.14111,0.10584 0.21167,0.0353 m 12.7,0 0.17638,-0.0353 0.17639,-0.10584 0.10584,-0.17638 0.0353,-0.17639 -0.0353,-0.21167 -0.10584,-0.14111 -0.17639,-0.10583 -0.17638,-0.0706 m 0,0 -0.21167,0.0706 -0.14111,0.10583 -0.10583,0.14111 -0.0353,0.21167 0.0353,0.17639 0.10583,0.17638 0.14111,0.10584 0.21167,0.0353 m 7.62,2.53999 0.17638,-0.0353 0.17639,-0.10584 0.10584,-0.17639 0.0353,-0.17638 -0.0353,-0.21167 -0.10584,-0.14111 -0.17639,-0.10584 -0.17638,-0.0705 m 0,0 -0.21167,0.0705 -0.14111,0.10584 -0.10584,0.14111 -0.0353,0.21167 0.0353,0.17638 0.10584,0.17639 0.14111,0.10584 0.21167,0.0353 m -17.78,-2.53999 0.17639,-0.0353 0.17638,-0.10584 0.10584,-0.17638 0.0353,-0.17639 -0.0353,-0.21167 -0.10584,-0.14111 -0.17638,-0.10583 -0.17639,-0.0706 m 0,0 -0.21167,0.0706 -0.14111,0.10583 -0.10583,0.14111 -0.0353,0.21167 0.0353,0.17639 0.10583,0.17638 0.14111,0.10584 0.21167,0.0353 m 30.480001,2.53999 0.17638,-0.0353 0.17639,-0.10584 0.10584,-0.17639 0.0353,-0.17638 -0.0353,-0.21167 -0.10584,-0.14111 -0.17639,-0.10584 -0.17638,-0.0705 m 0,0 -0.21167,0.0705 -0.14111,0.10584 -0.10584,0.14111 -0.0353,0.21167 0.0353,0.17638 0.10584,0.17639 0.14111,0.10584 0.21167,0.0353 m 2.53999,-3.56305 -0.21166,0.0706 -0.14111,0.10583 -0.10584,0.14111 -0.0353,0.21167 0.0353,0.17639 0.10584,0.17638 0.14111,0.10584 0.21166,0.0353 m 0,0 0.17639,-0.0353 0.17639,-0.10584 0.10584,-0.17638 0.0353,-0.17639 -0.0353,-0.21167 -0.10584,-0.14111 -0.17639,-0.10583 -0.17639,-0.0706 m -17.779991,2.54 -0.21167,0.0705 -0.14111,0.10584 -0.10584,0.14111 -0.0353,0.21167 0.0353,0.17638 0.10584,0.17639 0.14111,0.10584 0.21167,0.0353 m 0,0 0.17638,-0.0353 0.17639,-0.10584 0.10584,-0.17639 0.0353,-0.17638 -0.0353,-0.21167 -0.10584,-0.14111 -0.17639,-0.10584 -0.17638,-0.0705 m -22.86,-2.54 -0.21167,0.0706 -0.14111,0.10583 -0.10583,0.14111 -0.0353,0.21167 0.0353,0.17639 0.10583,0.17638 0.14111,0.10584 0.21167,0.0353 m 0,0 0.17639,-0.0353 0.17638,-0.10584 0.10584,-0.17638 0.0353,-0.17639 -0.0353,-0.21167 -0.10584,-0.14111 -0.17638,-0.10583 -0.17639,-0.0706 m 35.560001,3.56305 0.17638,-0.0353 0.17639,-0.10584 0.10584,-0.17639 0.0353,-0.17638 -0.0353,-0.21167 -0.10584,-0.14111 -0.17639,-0.10584 -0.17638,-0.0705 m 0,0 -0.21167,0.0705 -0.14111,0.10584 -0.10584,0.14111 -0.0353,0.21167 0.0353,0.17638 0.10584,0.17639 0.14111,0.10584 0.21167,0.0353 m -7.62,0 0.17638,-0.0353 0.17639,-0.10584 0.10584,-0.17639 0.0353,-0.17638 -0.0353,-0.21167 -0.10584,-0.14111 -0.17639,-0.10584 -0.17638,-0.0705 m 0,0 -0.21167,0.0705 -0.14111,0.10584 -0.10584,0.14111 -0.0353,0.21167 0.0353,0.17638 0.10584,0.17639 0.14111,0.10584 0.21167,0.0353 m -20.320001,0 0.17639,-0.0353 0.17638,-0.10584 0.10584,-0.17639 0.0353,-0.17638 -0.0353,-0.21167 -0.10584,-0.14111 -0.17638,-0.10584 -0.17639,-0.0705 m 0,0 -0.21167,0.0705 -0.14111,0.10584 -0.10583,0.14111 -0.0353,0.21167 0.0353,0.17638 0.10583,0.17639 0.14111,0.10584 0.21167,0.0353 m -5.08,0 0.17639,-0.0353 0.17638,-0.10584 0.10584,-0.17639 0.0353,-0.17638 -0.0353,-0.21167 -0.10584,-0.14111 -0.17638,-0.10584 -0.17639,-0.0705 m 0,0 -0.21167,0.0705 -0.14111,0.10584 -0.10583,0.14111 -0.0353,0.21167 0.0353,0.17638 0.10583,0.17639 0.14111,0.10584 0.21167,0.0353 m 30.480001,0 0.17638,-0.0353 0.17639,-0.10584 0.10584,-0.17639 0.0353,-0.17638 -0.0353,-0.21167 -0.10584,-0.14111 -0.17639,-0.10584 -0.17638,-0.0705 m 0,0 -0.21167,0.0705 -0.14111,0.10584 -0.10584,0.14111 -0.0353,0.21167 0.0353,0.17638 0.10584,0.17639 0.14111,0.10584 0.21167,0.0353 m -5.08,-3.56305 -0.21167,0.0706 -0.14111,0.10583 -0.10584,0.14111 -0.0353,0.21167 0.0353,0.17639 0.10584,0.17638 0.14111,0.10584 0.21167,0.0353 m 0,0 0.17638,-0.0353 0.17639,-0.10584 0.10584,-0.17638 0.0353,-0.17639 -0.0353,-0.21167 -0.10584,-0.14111 -0.17639,-0.10583 -0.17638,-0.0706 m -22.860001,2.54 -0.21167,0.0705 -0.14111,0.10584 -0.10583,0.14111 -0.0353,0.21167 0.0353,0.17638 0.10583,0.17639 0.14111,0.10584 0.21167,0.0353 m 0,0 0.17639,-0.0353 0.17638,-0.10584 0.10584,-0.17639 0.0353,-0.17638 -0.0353,-0.21167 -0.10584,-0.14111 -0.17638,-0.10584 -0.17639,-0.0705 m -7.62,0 -0.21167,0.0705 -0.14111,0.10584 -0.10583,0.14111 -0.0353,0.21167 0.0353,0.17638 0.10583,0.17639 0.14111,0.10584 0.21167,0.0353 m 0,0 0.17639,-0.0353 0.17638,-0.10584 0.10584,-0.17639 0.0353,-0.17638 -0.0353,-0.21167 -0.10584,-0.14111 -0.17638,-0.10584 -0.17639,-0.0705 m 20.32,0 -0.21167,0.0705 -0.14111,0.10584 -0.10583,0.14111 -0.0353,0.21167 0.0353,0.17638 0.10583,0.17639 0.14111,0.10584 0.21167,0.0353 m 0,0 0.17638,-0.0353 0.17639,-0.10584 0.10584,-0.17639 0.0353,-0.17638 -0.0353,-0.21167 -0.10584,-0.14111 -0.17639,-0.10584 -0.17638,-0.0705 m -2.54,-1.51694 0.17639,-0.0353 0.17638,-0.10584 0.10584,-0.17638 0.0353,-0.17639 -0.0353,-0.21167 -0.10584,-0.14111 -0.17638,-0.10583 -0.17639,-0.0706 m 0,0 -0.21167,0.0706 -0.14111,0.10583 -0.10583,0.14111 -0.0353,0.21167 0.0353,0.17639 0.10583,0.17638 0.14111,0.10584 0.21167,0.0353 m -2.54,0 0.17639,-0.0353 0.17638,-0.10584 0.10584,-0.17638 0.0353,-0.17639 -0.0353,-0.21167 -0.10584,-0.14111 -0.17638,-0.10583 -0.17639,-0.0706 m 0,0 -0.21167,0.0706 -0.14111,0.10583 -0.10583,0.14111 -0.0353,0.21167 0.0353,0.17639 0.10583,0.17638 0.14111,0.10584 0.21167,0.0353 m 12.7,-1.02306 -0.21167,0.0706 -0.14111,0.10583 -0.10584,0.14111 -0.0353,0.21167 0.0353,0.17639 0.10584,0.17638 0.14111,0.10584 0.21167,0.0353 m 0,0 0.17638,-0.0353 0.17639,-0.10584 0.10584,-0.17638 0.0353,-0.17639 -0.0353,-0.21167 -0.10584,-0.14111 -0.17639,-0.10583 -0.17638,-0.0706 m 5.080001,2.54 -0.21167,0.0705 -0.14111,0.10584 -0.10584,0.14111 -0.0353,0.21167 0.0353,0.17638 0.10584,0.17639 0.14111,0.10584 0.21167,0.0353 m 0,0 0.17638,-0.0353 0.17639,-0.10584 0.10584,-0.17639 0.0353,-0.17638 -0.0353,-0.21167 -0.10584,-0.14111 -0.17639,-0.10584 -0.17638,-0.0705 m 11.42999,-3.24556 H 65.068283 m 50.800017,4.97417 v -4.97417 m -50.800017,4.97417 H 115.8683 m -50.800017,-4.97417 v 4.97417 m 54.398357,-5.3975 0.45861,0.0353 0.45861,0.14111 0.42333,0.17639 0.38806,0.24694 0.35278,0.3175 0.3175,0.35278 0.21166,0.38806 0.17639,0.45861 0.0706,0.45861 0.0353,0.45861 -0.0706,0.45861 -0.10583,0.45861 -0.21167,0.42333 -0.24694,0.38806 -0.35278,0.3175 -0.35278,0.28222 -0.42333,0.21167 -0.42334,0.14111 -0.49389,0.10583 h -0.45861 l -0.45861,-0.10583 -0.42333,-0.14111 -0.42333,-0.21167 -0.38806,-0.28222 -0.3175,-0.3175 -0.24694,-0.38806 -0.21167,-0.42333 -0.14111,-0.45861 -0.0353,-0.45861 v -0.45861 l 0.10583,-0.45861 0.17639,-0.45861 0.21167,-0.38806 0.3175,-0.35278 0.3175,-0.3175 0.42333,-0.24694 0.42334,-0.17639 0.45861,-0.14111 0.45861,-0.0353 m -57.996717,49.00083 0.45862,0.0353 0.45862,0.14111 0.42333,0.17639 0.38806,0.24694 0.35277,0.3175 0.28224,0.35278 0.24694,0.38806 0.17639,0.45861 0.0705,0.45861 0.0353,0.45861 -0.0705,0.45861 -0.10584,0.45861 -0.21166,0.42334 -0.28224,0.38805 -0.3175,0.3175 -0.35277,0.28222 -0.42334,0.21167 -0.45862,0.14111 -0.45861,0.10583 h -0.45861 l -0.45861,-0.10583 -0.42333,-0.14111 -0.42335,-0.21167 -0.38805,-0.28222 -0.3175,-0.3175 -0.24695,-0.38805 -0.21166,-0.42334 -0.14112,-0.45861 -0.0353,-0.45861 v -0.45861 l 0.10583,-0.45861 0.17639,-0.45861 0.21167,-0.38806 0.28222,-0.35278 0.35278,-0.3175 0.42334,-0.24694 0.42333,-0.17639 0.45861,-0.14111 0.45861,-0.0353 m -3.49252,3.42195 0.0353,0.52916 0.14111,0.49389 0.21167,0.45861 0.28223,0.42334 0.38806,0.38805 0.42333,0.28222 0.49389,0.24695 0.4939,0.14111 0.52917,0.0353 m -2.99864,-53.0225 v 33.61972 m 0,2.01083 v 14.39334 m 2.99864,-53.0225 -0.52917,0.0706 -0.4939,0.14112 -0.49389,0.21166 -0.42333,0.28222 -0.38806,0.38806 -0.28223,0.42333 -0.21167,0.45861 -0.14111,0.52917 -0.0353,0.49389 m 81.985637,-2.99861 H 60.976033 m 81.950327,2.46944 -0.14111,-0.49389 -0.21167,-0.45861 -0.3175,-0.42333 -0.35278,-0.38806 -0.45861,-0.28222 -0.45861,-0.21166 -0.49389,-0.14112 -0.52916,-0.0706 m 2.99861,37.81777 v -4.30388 m 0,-13.08806 v -4.86833 m -2.99861,40.46361 0.52916,-0.0353 0.49389,-0.14111 0.45861,-0.24695 0.45861,-0.28222 0.35278,-0.38805 0.3175,-0.42334 0.21167,-0.45861 0.0706,-0.24694 m -81.879767,2.2225 h 3.81002 m 8.748906,0 h 6.985 m 6.49111,0 h 6.87917 m 6.526391,0 h 39.5464 m -78.493117,-11.00667 -0.35277,0.0353 -0.3175,0.10583 -0.28223,0.17639 -0.21166,0.24695 -0.21167,0.28222 -0.10584,0.3175 -0.0353,0.35278 0.0353,0.3175 0.10584,0.3175 0.21167,0.28222 0.21166,0.24694 0.28223,0.17639 0.3175,0.10583 0.35277,0.0353 0.3175,-0.0353 0.3175,-0.10583 0.28224,-0.17639 0.24694,-0.24694 0.17639,-0.28222 0.10583,-0.3175 0.0353,-0.3175 -0.0353,-0.35278 -0.10583,-0.3175 -0.17639,-0.28222 -0.24694,-0.24695 -0.28224,-0.17639 -0.3175,-0.10583 -0.3175,-0.0353 m 57.996717,-37.00639 -0.35278,0.0353 -0.3175,0.10583 -0.28222,0.17639 -0.21167,0.24695 -0.17639,0.28222 -0.14111,0.3175 -0.0353,0.35278 0.0353,0.3175 0.14111,0.3175 0.17639,0.28222 0.21167,0.24694 0.28222,0.17639 0.3175,0.10584 0.35278,0.0353 0.3175,-0.0353 0.3175,-0.10584 0.28222,-0.17639 0.24694,-0.24694 0.17639,-0.28222 0.10584,-0.3175 0.0353,-0.3175 -0.0353,-0.35278 -0.10584,-0.3175 -0.17639,-0.28222 -0.24694,-0.24695 -0.28222,-0.17639 -0.3175,-0.10583 -0.3175,-0.0353 m 0,41.5925 0.45861,0.0353 0.45861,0.14111 0.42333,0.17639 0.38806,0.24694 0.35278,0.3175 0.3175,0.35278 0.21166,0.38806 0.17639,0.45861 0.0706,0.45861 0.0353,0.45861 -0.0706,0.45861 -0.10583,0.45861 -0.21167,0.42334 -0.24694,0.38805 -0.35278,0.3175 -0.35278,0.28222 -0.42333,0.21167 -0.42334,0.14111 -0.49389,0.10583 h -0.45861 l -0.45861,-0.10583 -0.42333,-0.14111 -0.42333,-0.21167 -0.38806,-0.28222 -0.3175,-0.3175 -0.24694,-0.38805 -0.21167,-0.42334 -0.14111,-0.45861 -0.0353,-0.45861 v -0.45861 l 0.10583,-0.45861 0.17639,-0.45861 0.21167,-0.38806 0.3175,-0.35278 0.3175,-0.3175 0.42333,-0.24694 0.42334,-0.17639 0.45861,-0.14111 0.45861,-0.0353 m -57.996717,-49.00083 0.45862,0.0353 0.45862,0.14111 0.42333,0.17639 0.38806,0.24694 0.35277,0.3175 0.28224,0.35278 0.24694,0.38806 0.17639,0.45861 0.0705,0.45861 0.0353,0.45861 -0.0705,0.45861 -0.10584,0.45861 -0.21166,0.42333 -0.28224,0.38806 -0.3175,0.3175 -0.35277,0.28222 -0.42334,0.21167 -0.45862,0.14111 -0.45861,0.10583 h -0.45861 l -0.45861,-0.10583 -0.42333,-0.14111 -0.42335,-0.21167 -0.38805,-0.28222 -0.3175,-0.3175 -0.24695,-0.38806 -0.21166,-0.42333 -0.14112,-0.45861 -0.0353,-0.45861 v -0.45861 l 0.10583,-0.45861 0.17639,-0.45861 0.21167,-0.38806 0.28222,-0.35278 0.35278,-0.3175 0.42334,-0.24694 0.42333,-0.17639 0.45861,-0.14111 0.45861,-0.0353 m 57.996717,50.55305 -0.3175,0.0353 -0.3175,0.14111 -0.24695,0.17639 -0.24694,0.24695 -0.14111,0.28222 -0.0706,0.3175 v 0.3175 l 0.0706,0.3175 0.14111,0.28222 0.24694,0.24694 0.24695,0.17639 0.3175,0.14111 0.3175,0.0353 m 0,0 0.3175,-0.0353 0.3175,-0.14111 0.24694,-0.17639 0.21167,-0.24694 0.17639,-0.28222 0.0706,-0.3175 v -0.3175 l -0.0706,-0.3175 -0.17639,-0.28222 -0.21167,-0.24695 -0.24694,-0.17639 -0.3175,-0.14111 -0.3175,-0.0353 m -57.996717,-49.00083 -0.3175,0.0353 -0.3175,0.14111 -0.28222,0.17639 -0.21166,0.24695 -0.14112,0.28222 -0.0705,0.3175 v 0.3175 l 0.0705,0.3175 0.14112,0.28222 0.21166,0.24694 0.28222,0.17639 0.3175,0.14111 0.3175,0.0353 m 0,0 0.3175,-0.0353 0.3175,-0.14111 0.24696,-0.17639 0.21167,-0.24694 0.17638,-0.28222 0.0706,-0.3175 v -0.3175 l -0.0706,-0.3175 -0.17638,-0.28222 -0.21167,-0.24695 -0.24696,-0.17639 -0.3175,-0.14111 -0.3175,-0.0353 m 0,49.00083 -0.3175,0.0353 -0.3175,0.14111 -0.28222,0.17639 -0.21166,0.24695 -0.14112,0.28222 -0.0705,0.3175 v 0.3175 l 0.0705,0.3175 0.14112,0.28222 0.21166,0.24694 0.28222,0.17639 0.3175,0.14111 0.3175,0.0353 m 0,0 0.3175,-0.0353 0.3175,-0.14111 0.24696,-0.17639 0.21167,-0.24694 0.17638,-0.28222 0.0706,-0.3175 v -0.3175 l -0.0706,-0.3175 -0.17638,-0.28222 -0.21167,-0.24695 -0.24696,-0.17639 -0.3175,-0.14111 -0.3175,-0.0353 m 57.996717,-49.00083 -0.3175,0.0353 -0.3175,0.14111 -0.24695,0.17639 -0.24694,0.24695 -0.14111,0.28222 -0.0706,0.3175 v 0.3175 l 0.0706,0.3175 0.14111,0.28222 0.24694,0.24694 0.24695,0.17639 0.3175,0.14111 0.3175,0.0353 m 0,0 0.3175,-0.0353 0.3175,-0.14111 0.24694,-0.17639 0.21167,-0.24694 0.17639,-0.28222 0.0706,-0.3175 v -0.3175 l -0.0706,-0.3175 -0.17639,-0.28222 -0.21167,-0.24695 -0.24694,-0.17639 -0.3175,-0.14111 -0.3175,-0.0353 m -19.896671,26.07028 h -17.00389 m 17.00389,-0.49389 h -17.00389 m 0,0.49389 v -0.10583 -0.10584 -0.0705 -0.0706 -0.0705 -0.0353 -0.0353 m 17.00389,0 v 0 0.0353 0.0353 0.0705 0.0706 0.0705 0.10584 0.10583 m -17.00389,9.98361 h 17.00389 m -17.00389,-9.98361 v 9.98361 m 17.00389,0 v -9.98361 m 0,10.4775 h -17.00389 m 0,0 v 0 -0.0353 -0.0353 -0.0705 -0.0706 -0.0705 -0.10584 -0.10583 m 17.00389,0 v 0.10583 0.10584 0.0705 0.0706 0.0705 0.0353 0.0353 m 0,0.52917 h -17.00389 m 0,0 v -0.10584 -0.10583 -0.0706 -0.0705 -0.0706 -0.0705 -0.0353 m 17.00389,0 v 0.0353 0.0705 0.0706 0.0705 0.0706 0.10583 0.10584 m -17.00389,-12.02973 h 17.00389 m -17.00389,0.52917 v -0.0353 -0.0705 -0.0706 -0.0705 -0.0706 -0.10583 -0.10584 m 17.00389,0 v 0.10584 0.10583 0.0706 0.0705 0.0706 0.0705 0.0353 m 0,-2.99861 h -17.00389 m 0,0 v 2.46944 m 17.00389,0 v -2.46944 m -17.00389,16.96861 h 17.00389 m -17.00389,-2.46944 v 2.46944 m 17.00389,0 v -2.46944 M 65.174143,48.290282 v 13.08805 m 0,0 h 10.477526 m 0,0 v -13.08805 m 0,0 H 65.174143"
       style="fill:none;stroke:#000000;stroke-width:0.250119;stroke-linecap:round;stroke-linejoin:round;stroke-miterlimit:10;stroke-dasharray:none;stroke-opacity:1" />
    <rect
       style="fill:none;stroke:#1217ec;stroke-width:0.25;stroke-dasharray:none"
       id="rect3"
       width="124.75"
       height="94.75"
       x="36.398125"
       y="11.16413"
       ry="6.4190397" />
    <path
       style="font-variation-settings:normal;opacity:1;fill:none;fill-opacity:1;stroke:#1217ec;stroke-width:0.25;stroke-linecap:butt;stroke-linejoin:miter;stroke-miterlimit:4;stroke-dasharray:none;stroke-dashoffset:0;stroke-opacity:1;stop-color:#000000;stop-opacity:1"
       d="m 36.422223,23.914132 h 14.72575 v -2.875001 h 7 v 9.875001 h -21.72575"
       id="path4"
       sodipodi:nodetypes="cccccc" />
    <path
       style="font-variation-settings:normal;opacity:1;fill:none;fill-opacity:1;stroke:#1217ec;stroke-width:0.25;stroke-linecap:butt;stroke-linejoin:miter;stroke-miterlimit:4;stroke-dasharray:none;stroke-dashoffset:0;stroke-opacity:1;stop-color:#000000;stop-opacity:1"
       d="m 124.14804,11.164131 v 19.750001 h 22.00001 v -9.875001 h -7 v 2.875001 h -8 V 11.164131"
       id="path5"
       sodipodi:nodetypes="cccccccc" />
    <ellipse
       style="font-variation-settings:normal;opacity:1;fill:none;fill-opacity:1;stroke:#1217ec;stroke-width:0.25;stroke-linecap:butt;stroke-linejoin:miter;stroke-miterlimit:4;stroke-dasharray:none;stroke-dashoffset:0;stroke-opacity:1"
       id="path20"
       cx="61.466908"
       cy="44.655605"
       rx="1.2461082"
       ry="1.2461081" />
    <ellipse
       style="font-variation-settings:normal;opacity:1;fill:none;fill-opacity:1;stroke:#1217ec;stroke-width:0.25;stroke-linecap:butt;stroke-linejoin:miter;stroke-miterlimit:4;stroke-dasharray:none;stroke-dashoffset:0;stroke-opacity:1"
       id="ellipse22"
       cx="119.47426"
       cy="44.655605"
       rx="1.2461082"
       ry="1.2461081" />
    <ellipse
       style="font-variation-settings:normal;opacity:1;fill:none;fill-opacity:1;stroke:#1217ec;stroke-width:0.25;stroke-linecap:butt;stroke-linejoin:miter;stroke-miterlimit:4;stroke-dasharray:none;stroke-dashoffset:0;stroke-opacity:1"
       id="ellipse23"
       cx="119.47426"
       cy="93.706528"
       rx="1.2461082"
       ry="1.2461081" />
    <ellipse
       style="font-variation-settings:normal;opacity:1;fill:none;fill-opacity:1;stroke:#1217ec;stroke-width:0.25;stroke-linecap:butt;stroke-linejoin:miter;stroke-miterlimit:4;stroke-dasharray:none;stroke-dashoffset:0;stroke-opacity:1"
       id="ellipse24"
       cx="61.466908"
       cy="93.706528"
       rx="1.2461082"
       ry="1.2461081" />
    <path
       id="rect24"
       style="opacity:1;fill:none;stroke:#1217ec;stroke-width:0.25"
       d="m 195.07445,115.28501 h 125.125 c 5.47075,0 9.54574,4.41417 9.875,9.875 l 10.25,170 c -48.33008,0.0548 -116.67059,-0.63576 -165,0 0,0 9.875,-116.94071 9.875,-170 0,-5.47075 4.40425,-9.875 9.875,-9.875 z"
       sodipodi:nodetypes="sssccss" />
    <circle
       style="font-variation-settings:normal;opacity:1;fill:none;fill-opacity:1;stroke:#1217ec;stroke-width:0.250001;stroke-linecap:butt;stroke-linejoin:miter;stroke-miterlimit:4;stroke-dasharray:none;stroke-dashoffset:0;stroke-opacity:1"
       id="path29"
       cx="213.69943"
       cy="128.28496"
       r="3.125" />
    <circle
       style="font-variation-settings:normal;opacity:1;fill:none;fill-opacity:1;stroke:#1217ec;stroke-width:0.250001;stroke-linecap:butt;stroke-linejoin:miter;stroke-miterlimit:4;stroke-dasharray:none;stroke-dashoffset:0;stroke-opacity:1"
       id="circle29"
       cx="301.69943"
       cy="128.28496"
       r="3.125" />
    <circle
       style="font-variation-settings:normal;opacity:1;fill:none;fill-opacity:1;stroke:#1217ec;stroke-width:0.250001;stroke-linecap:butt;stroke-linejoin:miter;stroke-miterlimit:4;stroke-dasharray:none;stroke-dashoffset:0;stroke-opacity:1"
       id="circle30"
       cx="188.57443"
       cy="287.03506"
       r="3.125" />
    <circle
       style="font-variation-settings:normal;opacity:1;fill:none;fill-opacity:1;stroke:#1217ec;stroke-width:0.250001;stroke-linecap:butt;stroke-linejoin:miter;stroke-miterlimit:4;stroke-dasharray:none;stroke-dashoffset:0;stroke-opacity:1"
       id="circle31"
       cx="327.19943"
       cy="287.03506"
       r="3.125" />
    <rect
       style="font-variation-settings:normal;opacity:1;fill:none;fill-opacity:1;stroke:#1217ec;stroke-width:0.25;stroke-linecap:butt;stroke-linejoin:miter;stroke-miterlimit:4;stroke-dasharray:none;stroke-dashoffset:0;stroke-opacity:1"
       id="rect31"
       width="9.75"
       height="2.95"
       x="195.44943"
       y="280.76505" />
    <rect
       style="font-variation-settings:normal;opacity:1;fill:none;fill-opacity:1;stroke:#1217ec;stroke-width:0.25;stroke-linecap:butt;stroke-linejoin:miter;stroke-miterlimit:4;stroke-dasharray:none;stroke-dashoffset:0;stroke-opacity:1"
       id="rect32"
       width="9.75"
       height="2.95"
       x="310.44943"
       y="280.76505" />
    <rect
       style="font-variation-settings:normal;opacity:1;fill:none;fill-opacity:1;stroke:#1217ec;stroke-width:0.25;stroke-linecap:butt;stroke-linejoin:miter;stroke-miterlimit:4;stroke-dasharray:none;stroke-dashoffset:0;stroke-opacity:1"
       id="rect33"
       width="9.75"
       height="2.95"
       x="252.94943"
       y="280.76505" />
    <circle
       style="font-variation-settings:normal;opacity:1;fill:none;fill-opacity:1;stroke:#1217ec;stroke-width:0.25;stroke-linecap:butt;stroke-linejoin:miter;stroke-miterlimit:4;stroke-dasharray:none;stroke-dashoffset:0;stroke-opacity:1"
       id="circle1"
       cx="229.07443"
       cy="282.24005"
       r="1.4749995" />
    <circle
       style="font-variation-settings:normal;opacity:1;fill:none;fill-opacity:1;stroke:#1217ec;stroke-width:0.25;stroke-linecap:butt;stroke-linejoin:miter;stroke-miterlimit:4;stroke-dasharray:none;stroke-dashoffset:0;stroke-opacity:1"
       id="circle2"
       cx="286.57443"
       cy="282.24005"
       r="1.4749995" />
    <path
       style="fill:none;stroke:#1217ec;stroke-width:0.25"
       d="M 510.40592,147.17419 V 16 H 492.40593 V 4.0000101 h -9.87502 v 2.99999 H 460.25592 V 10 h 1.4 v 3 h -1.4 v 5 h -3.2 v -5 h -1.4 v -3 h 1.4 V 7.0000001 h -22.275 v -2.99999 h -9.75 v 2.99999 h -22.275 V 10 h 1.4 v 3 h -1.4 v 5 h -3.2 v -5 h -1.4 v -3 h 1.4 V 7.0000001 h -22.15 v -2.99999 l -10,-10e-6 v 10e-6 V 16 h -18 v 131.17419 9.65164 131.17418 h 18 V 300 v 10e-6 l 10,-10e-6 v -2.99999 h 22.15 v -3 h -1.4 v -3 h 1.4 v -5 h 3.2 v 5 h 1.4 v 3 h -1.4 v 3 h 22.275 V 300 h 9.75 v -2.99999 h 22.275 v -3 h -1.4 v -3 h 1.4 v -5 h 3.2 v 5 h 1.4 v 3 h -1.4 v 3 h 22.27499 V 300 h 9.87502 v -11.99999 h 17.99999 V 156.82583 Z"
       id="path35"
       sodipodi:nodetypes="ccccccccccccccccccccccccccccccccccccccccccccccccccccccccccccccccccccccccccccccccccc" />
    <rect
       style="fill:none;stroke:#1217ec;stroke-width:0.25;stroke-dasharray:none"
       id="rect19"
       width="124.75"
       height="94.75"
       x="197.34952"
       y="11.16413"
       ry="6.4190397" />
    <path
       style="font-variation-settings:normal;opacity:1;fill:none;fill-opacity:1;stroke:#1217ec;stroke-width:0.25;stroke-linecap:butt;stroke-linejoin:miter;stroke-miterlimit:4;stroke-dasharray:none;stroke-dashoffset:0;stroke-opacity:1;stop-color:#000000;stop-opacity:1"
       d="m 197.37362,23.914132 h 14.72575 v -2.875001 h 7 v 9.875001 h -21.72575"
       id="path19"
       sodipodi:nodetypes="cccccc" />
    <path
       style="font-variation-settings:normal;opacity:1;fill:none;fill-opacity:1;stroke:#1217ec;stroke-width:0.25;stroke-linecap:butt;stroke-linejoin:miter;stroke-miterlimit:4;stroke-dasharray:none;stroke-dashoffset:0;stroke-opacity:1;stop-color:#000000;stop-opacity:1"
       d="m 285.09943,11.164131 v 19.750001 h 22.00002 v -9.875001 h -7 v 2.875001 h -8 V 11.164131"
       id="path21"
       sodipodi:nodetypes="cccccccc" />
    <ellipse
       style="font-variation-settings:normal;opacity:1;fill:none;fill-opacity:1;stroke:#1217ec;stroke-width:0.25;stroke-linecap:butt;stroke-linejoin:miter;stroke-miterlimit:4;stroke-dasharray:none;stroke-dashoffset:0;stroke-opacity:1"
       id="ellipse21"
       cx="222.4183"
       cy="44.655605"
       rx="1.2461082"
       ry="1.2461081" />
    <ellipse
       style="font-variation-settings:normal;opacity:1;fill:none;fill-opacity:1;stroke:#1217ec;stroke-width:0.25;stroke-linecap:butt;stroke-linejoin:miter;stroke-miterlimit:4;stroke-dasharray:none;stroke-dashoffset:0;stroke-opacity:1"
       id="ellipse25"
       cx="280.42566"
       cy="44.655605"
       rx="1.2461082"
       ry="1.2461081" />
    <ellipse
       style="font-variation-settings:normal;opacity:1;fill:none;fill-opacity:1;stroke:#1217ec;stroke-width:0.25;stroke-linecap:butt;stroke-linejoin:miter;stroke-miterlimit:4;stroke-dasharray:none;stroke-dashoffset:0;stroke-opacity:1"
       id="ellipse26"
       cx="280.42566"
       cy="93.706528"
       rx="1.2461082"
       ry="1.2461081" />
    <ellipse
       style="font-variation-settings:normal;opacity:1;fill:none;fill-opacity:1;stroke:#1217ec;stroke-width:0.25;stroke-linecap:butt;stroke-linejoin:miter;stroke-miterlimit:4;stroke-dasharray:none;stroke-dashoffset:0;stroke-opacity:1"
       id="ellipse27"
       cx="222.4183"
       cy="93.706528"
       rx="1.2461082"
       ry="1.2461081" />
    <path
       id="path1"
       style="opacity:1;fill:none;stroke:#1217ec;stroke-width:0.25"
       d="M 158.49921,295.16314 H 33.374212 c -5.47075,0 -9.54574,-4.41417 -9.875,-9.875 l -10.25,-170 c 48.33008,-0.0548 116.670588,0.63576 164.999998,0 0,0 -9.875,116.94071 -9.875,170 0,5.47075 -4.40425,9.875 -9.875,9.875 z"
       sodipodi:nodetypes="sssccss" />
    <circle
       style="font-variation-settings:normal;opacity:1;fill:none;fill-opacity:1;stroke:#1217ec;stroke-width:0.250001;stroke-linecap:butt;stroke-linejoin:miter;stroke-miterlimit:4;stroke-dasharray:none;stroke-dashoffset:0;stroke-opacity:1"
       id="circle3"
       cx="-139.87425"
       cy="-282.16321"
       r="3.125"
       transform="scale(-1)" />
    <circle
       style="font-variation-settings:normal;opacity:1;fill:none;fill-opacity:1;stroke:#1217ec;stroke-width:0.250001;stroke-linecap:butt;stroke-linejoin:miter;stroke-miterlimit:4;stroke-dasharray:none;stroke-dashoffset:0;stroke-opacity:1"
       id="circle4"
       cx="-51.874237"
       cy="-282.16321"
       r="3.125"
       transform="scale(-1)" />
    <circle
       style="font-variation-settings:normal;opacity:1;fill:none;fill-opacity:1;stroke:#1217ec;stroke-width:0.250001;stroke-linecap:butt;stroke-linejoin:miter;stroke-miterlimit:4;stroke-dasharray:none;stroke-dashoffset:0;stroke-opacity:1"
       id="circle5"
       cx="-164.99925"
       cy="-123.41309"
       r="3.125"
       transform="scale(-1)" />
    <circle
       style="font-variation-settings:normal;opacity:1;fill:none;fill-opacity:1;stroke:#1217ec;stroke-width:0.250001;stroke-linecap:butt;stroke-linejoin:miter;stroke-miterlimit:4;stroke-dasharray:none;stroke-dashoffset:0;stroke-opacity:1"
       id="circle6"
       cx="-26.374237"
       cy="-123.41309"
       r="3.125"
       transform="scale(-1)" />
    <rect
       style="font-variation-settings:normal;opacity:1;fill:none;fill-opacity:1;stroke:#1217ec;stroke-width:0.25;stroke-linecap:butt;stroke-linejoin:miter;stroke-miterlimit:4;stroke-dasharray:none;stroke-dashoffset:0;stroke-opacity:1"
       id="rect6"
       width="9.75"
       height="2.95"
       x="-158.12425"
       y="-129.68311"
       transform="scale(-1)" />
    <rect
       style="font-variation-settings:normal;opacity:1;fill:none;fill-opacity:1;stroke:#1217ec;stroke-width:0.25;stroke-linecap:butt;stroke-linejoin:miter;stroke-miterlimit:4;stroke-dasharray:none;stroke-dashoffset:0;stroke-opacity:1"
       id="rect7"
       width="9.75"
       height="2.95"
       x="-43.124237"
       y="-129.68311"
       transform="scale(-1)" />
    <rect
       style="font-variation-settings:normal;opacity:1;fill:none;fill-opacity:1;stroke:#1217ec;stroke-width:0.25;stroke-linecap:butt;stroke-linejoin:miter;stroke-miterlimit:4;stroke-dasharray:none;stroke-dashoffset:0;stroke-opacity:1"
       id="rect8"
       width="9.75"
       height="2.95"
       x="-100.62424"
       y="-129.68311"
       transform="scale(-1)" />
    <circle
       style="font-variation-settings:normal;opacity:1;fill:none;fill-opacity:1;stroke:#1217ec;stroke-width:0.25;stroke-linecap:butt;stroke-linejoin:miter;stroke-miterlimit:4;stroke-dasharray:none;stroke-dashoffset:0;stroke-opacity:1"
       id="circle8"
       cx="-124.49924"
       cy="-128.2081"
       r="1.4749995"
       transform="scale(-1)" />
    <circle
       style="font-variation-settings:normal;opacity:1;fill:none;fill-opacity:1;stroke:#1217ec;stroke-width:0.25;stroke-linecap:butt;stroke-linejoin:miter;stroke-miterlimit:4;stroke-dasharray:none;stroke-dashoffset:0;stroke-opacity:1"
       id="circle9"
       cx="-66.999237"
       cy="-128.2081"
       r="1.4749995"
       transform="scale(-1)" />
  </g>
</svg>
